<?xml version="1.0" encoding="utf-8"?>
<!-- Generator: Adobe Illustrator 16.0.0, SVG Export Plug-In . SVG Version: 6.00 Build 0)  -->
<!DOCTYPE svg PUBLIC "-//W3C//DTD SVG 1.1//EN" "http://www.w3.org/Graphics/SVG/1.1/DTD/svg11.dtd">
<svg version="1.1" id="Layer_1" xmlns="http://www.w3.org/2000/svg" xmlns:xlink="http://www.w3.org/1999/xlink" x="0px" y="0px"
	 width="538px" height="395px" viewBox="0 0 538 395" enable-background="new 0 0 538 395" xml:space="preserve">
<g>
	<g>
		<path fill="none" d="M-367.668,606.929c0-277.334,0-554.668,0-832.001c313,0,626,0,939,0c0,277.333,0,554.667,0,832.001
			C258.332,606.929-54.668,606.929-367.668,606.929z M528.496,163.911c0.279-5.078,0.773-10.156,0.777-15.234
			c0.002-4.912-0.5-9.824-0.779-14.734c-1.396-10.634-2.26-21.374-4.334-31.876c-2.221-11.244-5.27-22.358-8.662-33.312
			c-0.863-2.791-4.391-4.758-6.695-7.104c-1.51,2.591-3.76,5.009-4.41,7.8c-5.516,23.634-10.146,47.488-16.201,70.975
			c-7.67,29.768-20.764,56.838-43.994,77.92c-5.283,4.795-11.279,8.805-16.947,13.176c-0.443-0.477-0.887-0.953-1.33-1.43
			c1.322-1.516,2.688-2.994,3.959-4.553c3.148-3.859,6.6-7.531,9.295-11.689c4.145-6.393,2.023-10.002-5.73-9.826
			c-3.768,0.086-7.607,0.834-11.25,1.867c-12.576,3.562-22.719,10.018-26.857,23.408c-1.174,3.795-2.691,7.518-4.43,11.088
			c-0.676,1.389-2.279,3.027-3.662,3.242c-4.756,0.736-9.598,0.998-14.418,1.193c-1.062,0.043-2.596-0.631-3.188-1.48
			c-6.57-9.414-3.889-19.871-3.865-29.564c6.182-0.652,11.682-0.908,17.055-1.871c11.051-1.98,16.352-6.818,16.506-16.174
			c0.324-19.594-5.844-36.375-23.305-47.252c-5.375-3.348-11.23-5.93-17.168-9.02c9.912-4.814,12.477-13.216,10.719-23.043
			c-1.836-10.254-4.547-20.349-6.717-30.548c-0.344-1.609-0.467-3.789,0.34-5.04c10.008-15.517,14.977-32.87,18.68-50.67
			c2.357-11.334,0.176-14.036-11.283-11.727c-15.436,3.11-30.611,7.503-45.953,11.11c-2.521,0.593-5.562,0.648-7.963-0.192
			c-16.016-5.614-32.369-8.188-49.076-4.554c-11.24,2.444-22.213,6.134-34.172,9.511c-11.785-9.017-26.795-14.284-42.355-18.131
			c-9.52-2.354-11.961-0.44-10.697,9.158c2.418,18.377,7.271,36.128,15.643,52.805c0.818,1.629,1.52,3.78,1.16,5.449
			c-1.012,4.69-2.545,9.274-3.982,13.867c-3.139,10.031-4.273,20.359-3.723,30.765c0.268,5.053,2.895,9.195,7.939,11.656
			c5.465,2.668,10.684,5.865,15.896,9.018c2.945,1.781,5.66,3.939,9.123,6.383c-12.99,2.648-23.949,6.371-29.734,17.971
			c-2.332,4.672-3.994,9.773-5.246,14.855c-0.926,3.758,0.746,6.275,5.34,5.863c6.246-0.561,12.521-1.201,18.779-1.135
			c6.064,0.066,7.533,2.85,5.336,8.434c-2.811,7.141-6.527,13.346-12.064,19.109c-9.812,10.215-12.412,17.84-1.99,30.742
			c3.277,4.055,4.979,9.383,7.4,14.129c-7.77-1.881-14.449-4.412-20.994-7.252c-0.973-0.422-1.467-2.25-1.916-3.523
			c-1.961-5.539-3.443-11.283-5.816-16.635c-3.209-7.232-12.436-10.098-19-0.604c-4.062,5.877-7.814,11.086-16.061,12.068
			c-7.941,0.945-14.006,6.301-18.885,12.719c-1.939,2.549-4.213,4.846-7.256,8.305c0-5.535,0.055-9.354-0.012-13.172
			c-0.123-7.051-1.873-13.439-6.078-19.398c-4.504-6.389-8.047-13.451-12.123-20.15c-1.967-3.232-3.525-7.287-6.43-9.273
			c-9.697-6.631-20.631-10.754-32.314-12.295c-5.18-0.684-8.299,3.537-6.734,8.432c0.578,1.801,1.635,3.57,2.863,5.025
			c4.201,4.98,9.016,9.504,12.746,14.801c3.076,4.369,5.955,9.402,6.891,14.514c0.42,2.283-4.068,5.541-6.459,8.24
			c-2.289,2.584-4.137,0.734-5.895-0.857c-3.441-3.117-6.658-6.521-10.332-9.33c-3.447-2.637-7.1-5.514-11.133-6.775
			c-9.82-3.074-20.004-4.109-30.262-2.125c-1.939,0.377-3.77,1.312-5.65,1.992c0.967,2.15,1.713,4.447,2.988,6.396
			c0.727,1.111,2.213,1.961,3.533,2.414c9.926,3.396,17.73,9.354,23.346,18.299c2.152,3.428,4.943,6.455,7.404,9.693
			c3.832,5.041,8.619,9.652,11.207,15.271c3.697,8.025,5.529,16.887,8.621,25.219c2.5,6.74,5.295,13.432,8.654,19.777
			c4.926,9.311,10.889,17.963,19.924,24.715c-3.637,4.08-7.203,7.721-10.33,11.707c-2.438,3.105-0.668,6.562,3.332,6.414
			c21.023-0.783,35.904-7.4,43.514-27.287c1.514-3.955,1.463-9.043,0.512-13.24c-0.781-3.443-0.566-4.934,2.441-6.646
			c11.787-6.713,23.277-6.557,35.246-0.102c11.203,6.041,17.182,1.602,20.498-8.801c0.998-3.127,1.373-6.453,2.107-10.061
			c4.932,2.643,9.684,4.5,13.613,7.451c6.211,4.668,12.213,9.137,20.613,7.793c0.637-0.102,1.533,0.416,2.074,0.904
			c2.246,2.029,4.768,3.895,6.506,6.311c2.68,3.727,6.178,5.477,10.48,6.582c3.734,0.959,7.209,3.754,10.883,3.926
			c5.492,0.256,11.229-0.455,16.547-1.906c5.24-1.432,10.09-4.297,15.162-6.555c4.131,4.354,10.215,5.912,16.064,4.043
			c1.393-0.445,2.828-1.299,4.193-1.207c12.871,0.861,25.732,1.879,38.594,2.871c3.453,0.266,8.998,7.027,8.137,10.232
			c-1.5,5.582-1.406,11.113,1.334,16.105c3.24,5.9,6.4,12.186,11.023,16.9c5.83,5.943,13.057,10.613,23.396,7.996
			c-0.924-4.473-1.479-8.846-2.787-12.98c-1.178-3.719-0.605-5.646,2.906-7.969c5.436-3.594,11.289-7.521,14.879-12.742
			c6.867-9.984,12.18-21.031,18.355-31.508c1.125-1.91,3.018-3.766,5.002-4.713c33.973-16.238,60.422-40.285,78.09-73.83
			C520.283,217.104,525.998,190.972,528.496,163.911z"/>
		<path fill-rule="evenodd" clip-rule="evenodd" fill="#0D131A" d="M528.496,163.911c-2.498,27.061-8.213,53.193-21.021,77.516
			c-17.668,33.545-44.117,57.592-78.09,73.83c-1.984,0.947-3.877,2.803-5.002,4.713c-6.176,10.477-11.488,21.523-18.355,31.508
			c-3.59,5.221-9.443,9.148-14.879,12.742c-3.512,2.322-4.084,4.25-2.906,7.969c1.309,4.135,1.863,8.508,2.787,12.98
			c-10.34,2.617-17.566-2.053-23.396-7.996c-4.623-4.715-7.783-11-11.023-16.9c-2.74-4.992-2.834-10.523-1.334-16.105
			c0.861-3.205-4.684-9.967-8.137-10.232c-12.861-0.992-25.723-2.01-38.594-2.871c-1.365-0.092-2.801,0.762-4.193,1.207
			c-5.85,1.869-11.934,0.311-16.064-4.043c-5.072,2.258-9.922,5.123-15.162,6.555c-5.318,1.451-11.055,2.162-16.547,1.906
			c-3.674-0.172-7.148-2.967-10.883-3.926c-4.303-1.105-7.801-2.855-10.48-6.582c-1.738-2.416-4.26-4.281-6.506-6.311
			c-0.541-0.488-1.438-1.006-2.074-0.904c-8.4,1.344-14.402-3.125-20.613-7.793c-3.93-2.951-8.682-4.809-13.613-7.451
			c-0.734,3.607-1.109,6.934-2.107,10.061c-3.316,10.402-9.295,14.842-20.498,8.801c-11.969-6.455-23.459-6.611-35.246,0.102
			c-3.008,1.713-3.223,3.203-2.441,6.646c0.951,4.197,1.002,9.285-0.512,13.24c-7.609,19.887-22.49,26.504-43.514,27.287
			c-4,0.148-5.77-3.309-3.332-6.414c3.127-3.986,6.693-7.627,10.33-11.707c-9.035-6.752-14.998-15.404-19.924-24.715
			c-3.359-6.346-6.154-13.037-8.654-19.777c-3.092-8.332-4.924-17.193-8.621-25.219c-2.588-5.619-7.375-10.23-11.207-15.271
			c-2.461-3.238-5.252-6.266-7.404-9.693c-5.615-8.945-13.42-14.902-23.346-18.299c-1.32-0.453-2.807-1.303-3.533-2.414
			c-1.275-1.949-2.021-4.246-2.988-6.396c1.881-0.68,3.711-1.615,5.65-1.992c10.258-1.984,20.441-0.949,30.262,2.125
			c4.033,1.262,7.686,4.139,11.133,6.775c3.674,2.809,6.891,6.213,10.332,9.33c1.758,1.592,3.605,3.441,5.895,0.857
			c2.391-2.699,6.879-5.957,6.459-8.24c-0.936-5.111-3.814-10.145-6.891-14.514c-3.73-5.297-8.545-9.82-12.746-14.801
			c-1.229-1.455-2.285-3.225-2.863-5.025c-1.564-4.895,1.555-9.115,6.734-8.432c11.684,1.541,22.617,5.664,32.314,12.295
			c2.904,1.986,4.463,6.041,6.43,9.273c4.076,6.699,7.619,13.762,12.123,20.15c4.205,5.959,5.955,12.348,6.078,19.398
			c0.066,3.818,0.012,7.637,0.012,13.172c3.043-3.459,5.316-5.756,7.256-8.305c4.879-6.418,10.943-11.773,18.885-12.719
			c8.246-0.982,11.998-6.191,16.061-12.068c6.564-9.494,15.791-6.629,19,0.604c2.373,5.352,3.855,11.096,5.816,16.635
			c0.449,1.273,0.943,3.102,1.916,3.523c6.545,2.84,13.225,5.371,20.994,7.252c-2.422-4.746-4.123-10.074-7.4-14.129
			c-10.422-12.902-7.822-20.527,1.99-30.742c5.537-5.764,9.254-11.969,12.064-19.109c2.197-5.584,0.729-8.367-5.336-8.434
			c-6.258-0.066-12.533,0.574-18.779,1.135c-4.594,0.412-6.266-2.105-5.34-5.863c1.252-5.082,2.914-10.184,5.246-14.855
			c5.785-11.6,16.744-15.322,29.734-17.971c-3.463-2.443-6.178-4.602-9.123-6.383c-5.213-3.152-10.432-6.35-15.896-9.018
			c-5.045-2.461-7.672-6.603-7.939-11.656c-0.551-10.405,0.584-20.733,3.723-30.765c1.438-4.593,2.971-9.177,3.982-13.867
			c0.359-1.669-0.342-3.82-1.16-5.449c-8.371-16.677-13.225-34.428-15.643-52.805c-1.264-9.599,1.178-11.513,10.697-9.158
			c15.561,3.847,30.57,9.114,42.355,18.131c11.959-3.377,22.932-7.066,34.172-9.511c16.707-3.634,33.061-1.061,49.076,4.554
			c2.4,0.841,5.441,0.785,7.963,0.192c15.342-3.607,30.518-8,45.953-11.11c11.459-2.31,13.641,0.393,11.283,11.727
			c-3.703,17.8-8.672,35.153-18.68,50.67c-0.807,1.251-0.684,3.431-0.34,5.04c2.17,10.199,4.881,20.294,6.717,30.548
			c1.758,9.827-0.807,18.229-10.719,23.043c5.938,3.09,11.793,5.672,17.168,9.02c17.461,10.877,23.629,27.658,23.305,47.252
			c-0.154,9.355-5.455,14.193-16.506,16.174c-5.373,0.963-10.873,1.219-17.055,1.871c-0.023,9.693-2.705,20.15,3.865,29.564
			c0.592,0.85,2.125,1.523,3.188,1.48c4.82-0.195,9.662-0.457,14.418-1.193c1.383-0.215,2.986-1.854,3.662-3.242
			c1.738-3.57,3.256-7.293,4.43-11.088c4.139-13.391,14.281-19.846,26.857-23.408c3.643-1.033,7.482-1.781,11.25-1.867
			c7.754-0.176,9.875,3.434,5.73,9.826c-2.695,4.158-6.146,7.83-9.295,11.689c-1.271,1.559-2.637,3.037-3.959,4.553
			c0.443,0.477,0.887,0.953,1.33,1.43c5.668-4.371,11.664-8.381,16.947-13.176c23.23-21.082,36.324-48.152,43.994-77.92
			c6.055-23.487,10.686-47.341,16.201-70.975c0.65-2.791,2.9-5.209,4.41-7.8c2.305,2.346,5.832,4.312,6.695,7.104
			c3.393,10.953,6.441,22.067,8.662,33.312c2.074,10.502,2.938,21.242,4.334,31.876
			C528.494,143.931,528.496,153.921,528.496,163.911z M251.133,306.985c3.193-1.332,6.385-2.664,9.576-3.994
			c-0.168-0.775-0.334-1.551-0.502-2.326c-1.904,0.113-3.809,0.227-5.715,0.34c-0.393-0.371-0.787-0.742-1.18-1.113
			c0.686-0.588,1.371-1.174,2.365-2.023c-1.711-0.469-3.166-0.73-4.51-1.266c-3.834-1.525-7.172-0.846-9.758,2.326
			c-2.842,3.484-2.633,7.199-0.398,11.002c0.709,1.203,0.961,2.674,1.422,4.023c-4.508-1.789-5.867,1.646-6.941,4.617
			c-1.354,3.74,1.186,7.82,6.322,9.074c-1.037-2.414-1.721-4.004-2.404-5.596c4.906,0.826,9.812,1.654,14.5,2.445
			c-1.164-4.586-2.293-9.031-3.42-13.477C250.705,309.675,250.92,308.329,251.133,306.985z M269.412,330.958
			c5.574,2.396,10.029,0.273,14.182-3.096c-3.877-1.25-7.541-2.412-11.193-3.615c-3.52-1.16-8.129,1.309-8.855,4.773
			c-4.75-1.23-6.186,2.561-9.703,6.184c6.893-0.373,12.268-0.662,17.85-0.965C270.553,332.603,269.982,331.78,269.412,330.958z
			 M253.516,315.888c3.275,9.057,7.498,10.543,15.16,5.678c-1.76-4.328-3.49-8.584-5.221-12.838
			c-0.248-1.336-0.498-2.67-0.773-4.145C253.393,308.739,252.793,309.513,253.516,315.888z M219.553,202.003
			c-1.42,3.424-2.84,6.848-4.484,10.812c3.576-0.314,6.348-0.559,9.119-0.803c5.258,2.133,10.516,4.266,15.996,6.486
			c1.314-3.443,2.949-7.729,4.102-10.75c-7.877-3.328-15.361-6.494-23.066-9.754C220.814,198.968,220.184,200.487,219.553,202.003z
			 M349.945,61.035c2.762,4.583,5.525,9.166,8.287,13.75c0.598,1.437,1.193,2.872,2.023,4.873c1.156-1.548,1.945-2.383,2.48-3.357
			c8.004-14.554,13.02-30.149,15.646-46.486c1.064-6.615-0.08-7.606-6.949-7.146c-17.873,1.199-35.021,5.707-51.83,11.673
			c-3.543,1.257-7.096,2.482-10.645,3.723c-0.16-0.316-0.32-0.634-0.482-0.951c2.146-1.387,4.293-2.773,6.996-4.521
			c-27.012-9.792-52.566-8.113-77.621,3.899c-1.717,0.823-3.705,1.076-5.566,1.594c-0.992-1.241-1.727-3.048-3.016-3.634
			c-8.217-3.732-16.553-7.196-24.852-10.749c-5.078-1.249-10.121-2.69-15.252-3.67c-2.725-0.521-4.602,0.624-3.48,3.95
			c-0.334,2.021-1.283,4.17-0.898,6.044c1.898,9.249,3.805,18.523,6.391,27.595c1.91,6.71,4.865,13.123,7.355,19.668
			c0.459-0.095,0.92-0.189,1.379-0.284c0.57-1.331,1.139-2.662,1.707-3.994c1.752-2.795,3.246-5.799,5.314-8.336
			c3.336-4.091,3.348-8.047,0.416-12.185c-5.604-7.909-11.254-15.787-16.885-23.678c1.688,0.825,3.99,1.206,4.961,2.55
			c5.23,7.238,10.125,14.721,15.15,22.109c2.59,3.812,1.998,7.277-0.477,11.038c-10.609,16.117-15.107,34.217-16.545,53.191
			c-0.709,9.339,0.885,17.497,11.213,21.426c4.283,1.631,8.088,4.572,12.029,7.045c9.207,5.773,17.775,12.258,23.479,21.812
			c1.779,3.352,3.281,6.889,5.395,10.014c5.252,7.764,12.473,10.287,21.668,7.975c3.322-1.611,7.141-2.646,9.859-4.967
			c4.59-3.916,8.484-8.648,12.672-13.039c13.691-12.191,30.193-18.814,47.418-24.066c6.316-1.926,12.738-3.736,18.719-6.465
			c5.873-2.681,9.672-7.457,9.336-14.508c-0.158-4.453-0.02-8.941-0.527-13.355c-1.988-17.304-8.207-33.045-17.715-47.61
			c-1.254-1.922-2.113-5.355-1.25-7.196c4.783-10.208,13.051-17.41,22.182-23.669c0.572-0.392,1.613-0.1,2.436-0.126
			c-1.412,1.351-2.891,2.637-4.225,4.062c-5.629,6.017-11.318,11.982-16.764,18.161C347.283,55.685,347.061,58.584,349.945,61.035z
			 M360.258,228.45c0.531,0.443,1.062,0.887,1.822,1.52c0-12.6,0-24.717,0-37.381c-8.322,3.977-16.018,7.656-23.863,11.406
			c0,1.949,0,3.924,0,5.898c-0.279,3.875-0.557,7.75-0.717,9.979C345.879,223.03,353.068,225.739,360.258,228.45z M485.316,164.097
			c0.066,0.416,0.131,0.832,0.197,1.248c-1.461,1.68-3.434,3.133-4.305,5.08c-12.535,27.982-29.652,51.928-57.684,66.438
			c-0.715,0.369-1.527,0.83-1.93,1.475c-4.586,7.354-0.93,17.365,7.154,20.35c4.635-4.908,9.129-9.799,13.773-14.545
			c4.898-5.008,10.951-7.307,17.957-7.324c5.49-0.014,10.979-0.289,16.471-0.344c3.803-0.039,7.299,0.725,9.258,4.533
			c0.096,6.08-5.201,7.277-8.945,9.879c-9.629,3.139-16.893,9.125-21.723,18.041c-8.555,13.203-17.107,26.406-25.662,39.607
			c1.836,0.533,2.479,0.34,3.066,0.037c48.475-24.924,77.369-64.559,88.455-117.619c0.938-4.482,1.662-8.809-0.951-12.963
			c2.207,0.682,3.312-0.125,3.527-2.436c0.383-4.105,1.1-8.197,1.188-12.305c0.039-1.789-1.129-3.604-1.748-5.404
			c-5.109-10.352-16.961-15.445-28.424-12.445c-3.727,0.977-6.004,2.787-6.961,6.697c-0.857,3.5-2.529,6.795-3.691,10.23
			C484.193,162.759,484.969,163.499,485.316,164.097z M190.576,273.927c0.586,7.922,1.086,15.85,1.838,23.754
			c0.129,1.35,0.998,3.143,2.09,3.807c6.77,4.121,13.648,8.074,20.607,11.873c2.387,1.303,5.105,2.002,7.885,3.059
			c-2.457-8.287-4.852-15.449-6.67-22.756c-1.631-6.547-2.629-13.25-3.906-19.885c-0.895-1.039-1.588-2.469-2.719-3.051
			c-5.414-2.787-10.916-5.412-16.459-7.938c-1.365-0.621-2.998-0.652-4.754-1.004C189.256,266.255,189.916,270.091,190.576,273.927z
			 M213.326,189.833c2.562,1.158,5.197,2.18,7.672,3.502c5.254,2.811,10.227,6.234,15.67,8.586
			c11.824,5.098,22.643,0.195,26.266-11.922c-8.6,0.963-14.824-3.117-19.465-9.613c-3.051-4.271-5.367-9.066-8.012-13.631
			c-6.312-9.693-9.129-10.637-19.762-6.621c-0.777,0.293-1.576,0.539-2.336,0.873c-11.482,5.053-18.684,13.631-21.051,26.01
			c-0.871,4.557,0.107,5.014,4.715,4.309C202.408,190.499,207.887,190.302,213.326,189.833z M273.256,191.663
			c-0.346,0.348-0.82,0.635-1.02,1.053c-4,8.447-9.736,14.586-19.756,15.324c-0.721,0.053-1.734,1.07-1.98,1.842
			c-1.719,5.355-3.27,10.766-4.896,16.232c3.674-1.523,6.773-3.564,10.096-4.043c9.451-1.357,18.992-2.078,28.498-3.049
			c2.744,0.494,5.504,0.912,8.227,1.496c10.504,2.254,20.098,6.596,26.764,11.613c3.902-2.902,6.918-6.18,10.65-7.691
			c6.215-2.52,4.555-6.793,4.139-11.189c-9.809,0.107-14.354-2.816-18.109-11.42c-0.799-1.83-1.693-3.639-2.254-5.543
			c-2.361-7.998-7.885-11.412-15.959-11.377c-4.992,0.021-9.994,0.098-14.977-0.158
			C277.516,184.487,274.512,186.786,273.256,191.663z M373.043,312.872c3.08-12.721,6.029-25.475,9.301-38.145
			c1.363-5.273,0.064-9.377-3.875-12.867c-2.33-2.377-4.66-4.754-6.098-6.221c-4.33,4.826-7.783,9.217-11.791,13.023
			c-6.879,6.529-14.242,12.549-21.15,19.049c-9.953,9.363-9.979,9.543-2.57,20.836c6.555,9.992,13.418,19.783,21.105,31.074
			C363.494,329.812,368.268,321.341,373.043,312.872z M296.256,262.63c9.881-7.162,17.188-16.551,23.922-26.783
			c-9.408-6.578-19.119-10.877-29.902-12.66c-8.096-0.285-16.311-1.539-24.248-0.561c-6.691,0.824-13.123,4.09-19.521,6.645
			c-1.213,0.486-2.701,2.973-2.404,4.096c1.596,6.023,2.568,12.674,5.908,17.67c5.799,8.672,13.174,16.291,20.443,25.021
			C278.746,271.741,287.502,267.185,296.256,262.63z M100.35,364.989c15.129-2.92,25.115-11.826,29.398-26.494
			c0.947-3.242-0.277-7.42-1.369-10.893c-2.826-8.986-7.578-17.609-8.914-26.764c-1.934-13.254-1.412-26.854-2.182-40.293
			c-0.428-7.467-1.197-14.875-5.664-21.4c-3.846-5.615-7.727-11.297-10.742-17.371c-5.352-10.777-14.434-16.104-25.42-19.137
			c-3.648-1.01-7.244-2.471-10.959-2.904c-3.734-0.436-5.127,2.043-3.424,5.434c0.805,1.604,2.061,2.998,3.203,4.414
			c4.695,5.818,9.473,11.572,14.131,17.42c5.006,6.285,5.291,13.621,4.662,22.07c-1.072-1.488-1.656-2.299-2.258-3.133
			c-0.564,0.449-1.045,0.924-1.607,1.268c-6.41,3.916-15.066,5.168-17.008,14.373c-0.609-0.529-1.219-1.057-1.828-1.584
			c1.801-3.564,3.6-7.127,5.504-10.896c-3.836-3.197-7.797-6.727-12.004-9.934c-3.125-2.383-6.328-5.539-9.916-6.256
			c-8.375-1.678-16.994-2.193-25.535-2.908c-1.244-0.104-2.611,1.273-3.922,1.967c2.646,2.229,4.953,5.422,8.006,6.492
			c7.086,2.486,12.428,6.623,16.734,12.676c4.529,6.367,9.412,12.496,14.365,18.543c4.59,5.602,7.717,11.783,10.127,18.658
			c3.896,11.107,8.35,22.066,13.332,32.73c4.625,9.904,10.035,19.498,18.844,26.691c6.184-13.559,6.184-13.559,13.424-15.85
			c2.238,0.906,4.492,1.787,6.678,2.812c0.098,0.045-0.416,1.395-0.645,2.137c-6.104-3.207-11.525-1.352-13.953,5.861
			c-2.654,7.895-5.711,15.209-12.795,20.188c-0.672,0.471-1.379,2.047-1.102,2.459c0.535,0.797,1.832,1.67,2.688,1.559
			C93.609,366.478,96.971,365.665,100.35,364.989z M213.248,217.868c-3.742,4.305-7.977,8.285-11.092,13.004
			c-3.441,5.211-2.393,10.557,1.35,15.748c3.072,4.268,6.154,8.896,7.668,13.842c3.24,10.588,5.75,21.428,8.025,32.275
			c2.037,9.711,4.254,19.1,12.955,25.039c2.174-2.596,4.137-4.941,6.234-7.449c-2.574-5.68-2.375-10.959,3.436-15.131
			c0.625-0.449,0.383-2.107,0.541-3.205c3.43,0.791,6.861,1.582,10.689,2.463c-0.287-2.25-0.514-3.678-0.639-5.115
			c-0.125-1.43-0.148-2.869-0.225-4.496c-3.189,0.717-6.002,1.35-8.814,1.982c0.639-0.682,1.279-1.363,1.918-2.043
			c1.303-0.861,3.402-1.463,3.777-2.623c2.57-7.963,8.414-9.533,16.666-8.416c-2.062-2.309-3.432-4.178-5.127-5.684
			c-10.148-9.014-17.342-19.65-19.076-33.473c-0.309-2.445-1.08-4.871-1.914-7.207C235.664,216.3,223.641,211.997,213.248,217.868z
			 M372.381,150.843c-6.783-5.043-14.002-9.662-22.818-7.484c-8.994,2.225-17.674,5.693-26.557,8.406
			c-6.191,1.889-9.447,6.457-10.346,12.248c-1.68,10.842,1.59,20.305,9.811,27.838c7.971,8.561,14.559,9.801,24.719,4.652
			c2.375-1.201,4.678-2.574,7.129-3.586c5.053-2.088,10.035-4.703,15.318-5.805c9.25-1.932,18.303,4.049,24.443,15.057
			C402.568,190.239,389.707,159.819,372.381,150.843z M177.311,262.937c0.455,2.385,0.91,4.771,1.365,7.156
			c-0.322,0.076-0.645,0.154-0.965,0.23c-0.75-1.539-1.498-3.076-2.246-4.615c-4.75-12.557-17.889-18.105-30.697-12.682
			c-9.93,4.201-16.188,12.4-22.123,20.975c-3.721,5.373-1.494,10.92-1.354,16.436c0.021,0.83,0.139,1.656,0.211,2.484
			c1.223,10.008,2.953,19.869,7.715,28.926c2.453-1.262,4.342-2.316,6.301-3.227c12.379-5.748,24.338-4.447,36.5,1.287
			c8.865,4.182,14.023,1.123,16.42-8.506c0.52-2.082,1.133-4.287,0.961-6.373c-1.299-15.711-2.783-31.404-4.209-47.104
			c-1.953-6.275-3.27-12.85-6.041-18.74c-2.717-5.779-8.035-6.246-12.645-1.699c-2.867,2.828-5.078,6.32-8.061,10.123
			C168.049,249.688,173.584,255.272,177.311,262.937z M265.561,303.843c0.588,2.746,0.965,5.561,1.801,8.229
			c3.123,9.973,7.912,12.99,18.221,11.965c7.863-0.779,14.143-4.916,19.76-9.84c19.371-16.982,38.496-34.244,57.717-51.396
			c3.639-3.248,4.803-7.434,4.635-12.137c-0.395-10.904-8.697-21.402-19.406-24.523c-10.686-4.057-16.584-2.221-22.979,7.178
			c-1.025,1.51-1.971,3.074-2.994,4.588c-10.695,15.811-23.094,29.461-42.018,35.801c-12.539,4.199-15.162,8.436-15.365,21.705
			C264.889,298.218,265.338,301.032,265.561,303.843z M438.182,209.919c-1.689-0.93-3.529-2.861-5.041-2.631
			c-14.867,2.25-27.738,7.314-34.473,22.596c-7.438,16.871-12.639,34.229-15.355,52.463c-2.992,20.072-8.092,39.398-21.18,55.793
			c-2.299,2.881-3.426,7.318-3.652,11.123c-0.842,14.139,12.002,30.479,25.824,33.502c1.195,0.262,2.498,0.035,3.908,0.035
			c0-1.613,0.355-2.898-0.057-3.855c-4.092-9.543-5-19.561-5.092-29.809c-0.039-4.432-2.295-7.602-7.547-7.268
			c-1.002,0.064-2.051-0.602-3.078-0.93c0.02-0.295,0.039-0.59,0.059-0.885c2.25-0.354,4.5-0.709,6.75-1.062
			c5.549,1.873,6.693,6.473,6.895,11.486c0.176,4.352,0.037,8.715,0.037,13.662c1.551-0.771,2.158-1.006,2.693-1.354
			c1.115-0.723,2.201-1.49,3.283-2.26c10.645-7.584,17.223-18.332,22.789-29.76c10.5-21.551,22.672-42.088,36.389-61.746
			c6.314-9.049,13.416-16.811,24.393-20.27c2.508-0.789,4.537-3.098,6.787-4.707c0.371-3.406,0.059-3.881-4.244-4.264
			c-17.654-1.572-33.533,1.141-44.066,17.682c-2.033,3.189-3.564,5.859-1.723,9.471c-0.068,1.383-0.139,2.764-0.145,2.896
			c-3.945-4.936-8.34-10.432-12.996-16.258c-1.301,2.881-2.145,4.752-2.988,6.623c-0.514-2.742-0.037-5.191-0.039-7.641
			c-0.016-12.604,3.717-23.467,14.135-31.348c0.262-0.197,0.512-0.441,0.693-0.713C433.496,216.974,435.838,213.444,438.182,209.919
			z M525.324,154.929c1.471-28.699-3.039-55.637-11.236-82.043c-0.818-2.636-2.732-4.933-4.139-7.387
			c-0.637,0.103-1.273,0.206-1.91,0.309c-5.639,26.294-11.277,52.586-16.926,78.922
			C504.479,140.063,515.801,142.864,525.324,154.929z M372.363,189.735c-6.049,0.039-6.908,0.877-6.889,6.717
			c0.012,3.65-0.238,7.332,0.184,10.934c0.146,1.246,2.148,3.402,2.986,3.262c6.811-1.146,13.584-2.605,20.262-4.369
			c0.82-0.217,1.791-3.07,1.377-4.232C388.027,195.735,378.914,189.69,372.363,189.735z M291.42,326.851
			c7.197,4.551,11.773,3.934,19.385-2.092c7.186-5.689,13.502-12.838,24.023-13.717c-2.555-4.131-4.764-7.703-7.158-11.572
			C316.303,309.899,306.215,321.065,291.42,326.851z M311.943,326.604c0.225,0.711,0.451,1.42,0.678,2.131
			c11.148,0.531,22.295,1.062,34.541,1.646c-3.227-4.953-5.9-8.381-7.824-12.186c-2.355-4.656-6.08-5.48-9.896-3.314
			C323.354,318.339,317.75,322.653,311.943,326.604z M370.17,248.081c3.041,7.359,10.383,9.141,13.621,15.408
			c1.578-5.902,2.855-10.684,4.117-15.408C382.416,248.081,377.006,248.081,370.17,248.081z M265.061,280.101
			c-2.699,0.711-5.656,0.613-6.92,2.029c-1.838,2.057-2.699,5.141-3.41,7.93c-0.174,0.68,1.752,2.596,2.904,2.785
			c3.814,0.625,4.479-2.373,5.186-5.209C263.379,285.394,264.131,283.198,265.061,280.101z M255.357,331.437
			c-1.873-5.152-1.873-5.152-12.842-6.891c0.158,1.623-0.02,4.258,0.5,4.402C246.818,330.015,250.76,330.581,255.357,331.437z
			 M265.51,277.464c-6.051-2.934-9.77-1.73-14.045,4.512C256.248,280.438,260.566,279.052,265.51,277.464z M247.844,210.413
			c-5.08,5.689-6.785,11.518-5.096,15.086C244.561,220.136,246.203,215.274,247.844,210.413z"/>
		<path fill-rule="evenodd" clip-rule="evenodd" fill="#FEFEFE" d="M528.496,163.911c0-9.99-0.002-19.98-0.002-29.968
			c0.279,4.91,0.781,9.822,0.779,14.734C529.27,153.755,528.775,158.833,528.496,163.911z"/>
		<path fill-rule="evenodd" clip-rule="evenodd" fill="#ECC200" d="M232.285,38.085c1.861-0.518,3.85-0.771,5.566-1.594
			c25.055-12.013,50.609-13.691,77.621-3.899c-2.703,1.747-4.85,3.134-6.996,4.521c0.162,0.317,0.322,0.635,0.482,0.951
			c3.549-1.24,7.102-2.466,10.645-3.723c16.809-5.966,33.957-10.474,51.83-11.673c6.869-0.461,8.014,0.53,6.949,7.146
			c-2.627,16.337-7.643,31.933-15.646,46.486c-0.535,0.975-1.324,1.81-2.48,3.357c-0.83-2.001-1.426-3.437-2.023-4.873
			c3.051-5.968,6.102-11.936,9.15-17.902c2.688-8.933,5.375-17.866,8.061-26.799c-0.498-0.229-0.998-0.457-1.496-0.686
			c-1.16,0.524-2.32,1.049-3.48,1.573c-0.822,0.026-1.863-0.266-2.436,0.126c-9.131,6.259-17.398,13.461-22.182,23.669
			c-0.863,1.841-0.004,5.274,1.25,7.196c9.508,14.565,15.727,30.307,17.715,47.61c0.508,4.414,0.369,8.902,0.527,13.355
			c-4.318,2.706-8.344,6.173-13.012,7.974c-13.145,5.074-26.699,9.091-39.812,14.238c-10.527,4.131-20.586,9.389-27.342,19.125
			c-0.314-0.082-0.635-0.096-0.957-0.041c-5.787-3.121-11.305-6.986-17.422-9.197c-10.891-3.938-19.121,0.469-26.521,12.959
			c-5.703-9.555-14.271-16.039-23.479-21.812c-3.941-2.473-7.746-5.414-12.029-7.045c-10.328-3.929-11.922-12.087-11.213-21.426
			c1.438-18.975,5.936-37.074,16.545-53.191c2.475-3.761,3.066-7.227,0.477-11.038c-5.025-7.389-9.92-14.871-15.15-22.109
			c-0.971-1.344-3.273-1.725-4.961-2.549c-0.352-0.249-0.701-0.498-1.051-0.748c-1.242-1.361-2.486-2.722-3.729-4.083
			c-1.121-3.326,0.756-4.471,3.48-3.95c5.131,0.979,10.174,2.421,15.252,3.67c5.344,4.607,10.848,9.044,15.99,13.867
			C226.205,43.007,226.064,43.159,232.285,38.085z M314.557,112.844c-11.992,2.244-31.602,22.317-30.598,34.698
			C290.986,132.238,302.244,122.069,314.557,112.844z M236.984,145.05c1.057-7.127-16.221-26.221-24.672-27.536
			C220.383,126.519,228.816,135.933,236.984,145.05z"/>
		<path fill-rule="evenodd" clip-rule="evenodd" fill="#ECC200" d="M109.328,331.909c-7.24,2.291-7.24,2.291-13.424,15.85
			c-8.809-7.193-14.219-16.787-18.844-26.691c-4.982-10.664-9.436-21.623-13.332-32.73c-2.41-6.875-5.537-13.057-10.127-18.658
			c-4.953-6.047-9.836-12.176-14.365-18.543c-4.307-6.053-9.648-10.189-16.734-12.676c-3.053-1.07-5.359-4.264-8.006-6.492
			c12.223,0.791,24.711,1.357,34.207,10.359c5.113,4.846,11.225,9.523,11.666,17.668c0.609,0.527,1.219,1.055,1.828,1.584
			c1.941-9.205,10.598-10.457,17.008-14.373c0.562-0.344,1.043-0.818,1.607-1.268c0.602,0.834,1.186,1.645,2.258,3.133
			c0.629-8.449,0.344-15.785-4.662-22.07c-4.658-5.848-9.436-11.602-14.131-17.42c-1.143-1.416-2.398-2.811-3.203-4.414
			c-1.703-3.391-0.311-5.869,3.424-5.434c3.715,0.434,7.311,1.895,10.959,2.904c2.773,2.512,5.666,4.908,8.297,7.562
			c7.463,7.523,14.027,15.555,13.586,27.062c-0.662,17.316,2.871,34.158,5.609,51.107
			C105.289,302.849,107.217,317.394,109.328,331.909z"/>
		<path fill-rule="evenodd" clip-rule="evenodd" fill="#C5A300" d="M482.514,244.044c-2.25,1.609-4.279,3.918-6.787,4.707
			c-10.977,3.459-18.078,11.221-24.393,20.27c-13.717,19.658-25.889,40.195-36.389,61.746c-5.566,11.428-12.145,22.176-22.789,29.76
			c-1.082,0.77-2.168,1.537-3.283,2.26c-0.535,0.348-1.143,0.582-2.693,1.354c0-4.947,0.139-9.311-0.037-13.662
			c-0.201-5.014-1.346-9.613-6.895-11.486c6.258-8.029,9.805-17.363,12.006-27.09c5.256-23.223,10.074-46.543,15.045-69.83
			c2.232-10.461,7.744-18.633,16.992-24.076c4.863-2.863,9.922-5.395,14.891-8.076c-2.344,3.525-4.686,7.055-7.041,10.574
			c-0.182,0.271-0.432,0.516-0.693,0.713c-10.418,7.881-14.15,18.744-14.135,31.348c0.002,2.449-0.475,4.898,0.039,7.641
			c0.844-1.871,1.688-3.742,2.988-6.623c4.656,5.826,9.051,11.322,12.996,16.258c0.006-0.133,0.076-1.514,0.145-2.896
			c0.523,2.604,1.045,5.207,1.846,9.197c1.492-2.107,2.396-3.131,3.014-4.303c1.85-3.514,3.648-7.055,5.354-10.641
			c3.455-7.258,8.613-12.34,16.824-13.854c2.42-0.447,4.721-1.648,7.143-1.943C471.922,244.749,477.227,244.472,482.514,244.044z"/>
		<path fill-rule="evenodd" clip-rule="evenodd" fill="#ECC200" d="M486.209,241.007c-1.959-3.809-5.455-4.572-9.258-4.533
			c-5.492,0.055-10.98,0.33-16.471,0.344c-7.006,0.018-13.059,2.316-17.957,7.324c-4.645,4.746-9.139,9.637-13.773,14.545
			c-8.084-2.984-11.74-12.996-7.154-20.35c0.402-0.645,1.215-1.105,1.93-1.475c28.031-14.51,45.148-38.455,57.684-66.438
			c0.871-1.947,2.844-3.4,4.305-5.082c8.57-0.801,17.072-1.168,24.902,3.463c0.473,0.281,1.271,0.014,1.918,0.002
			c1.682,1.688,3.363,3.371,5.045,5.057c-0.371,2.275-0.416,4.668-1.176,6.805c-2.5,7.033-5.137,14.021-7.943,20.939
			C502.559,215.653,495.414,228.913,486.209,241.007z"/>
		<path fill-rule="evenodd" clip-rule="evenodd" fill="#C5A300" d="M348.287,226.14c10.709,3.121,19.012,13.619,19.406,24.523
			c0.168,4.703-0.996,8.889-4.635,12.137c-19.221,17.152-38.346,34.414-57.717,51.396c-5.617,4.924-11.896,9.061-19.76,9.84
			c-10.309,1.025-15.098-1.992-18.221-11.965c-0.836-2.668-1.213-5.482-1.801-8.229c5.225-2.686,10.381-5.518,15.691-8.021
			c6.869-3.238,14.289-5.516,20.711-9.449c13.375-8.195,24.727-18.951,34.441-31.234
			C343.064,246.716,350.064,238.147,348.287,226.14z"/>
		<path fill-rule="evenodd" clip-rule="evenodd" fill="#ECC200" d="M438.182,209.919c-4.969,2.682-10.027,5.213-14.891,8.076
			c-9.248,5.443-14.76,13.615-16.992,24.076c-4.971,23.287-9.789,46.607-15.045,69.83c-2.201,9.727-5.748,19.061-12.006,27.09
			c-2.25,0.354-4.5,0.709-6.75,1.062c-0.02,0.295-0.039,0.59-0.059,0.885c1.027,0.328,2.076,0.994,3.078,0.93
			c5.252-0.334,7.508,2.836,7.547,7.268c0.092,10.248,1,20.266,5.092,29.809c0.412,0.957,0.057,2.242,0.057,3.855
			c-1.41,0-2.713,0.227-3.908-0.035c-13.822-3.023-26.666-19.363-25.824-33.502c0.227-3.805,1.354-8.242,3.652-11.123
			c13.088-16.395,18.188-35.721,21.18-55.793c2.717-18.234,7.918-35.592,15.355-52.463c6.734-15.281,19.605-20.346,34.473-22.596
			C434.652,207.058,436.492,208.989,438.182,209.919z"/>
		<path fill-rule="evenodd" clip-rule="evenodd" fill="#C5A300" d="M175.465,265.708c0.748,1.539,1.496,3.076,2.246,4.615
			c0.32-0.076,0.643-0.154,0.965-0.23c-0.455-2.385-0.91-4.771-1.365-7.156c4.143,0.713,5.877-2.361,7.879-5.012
			c1.426,15.699,2.91,31.393,4.209,47.104c0.172,2.086-0.441,4.291-0.961,6.373c-2.396,9.629-7.555,12.688-16.42,8.506
			c-12.162-5.734-24.121-7.035-36.5-1.287c-1.959,0.91-3.848,1.965-6.301,3.227c-4.762-9.057-6.492-18.918-7.715-28.926
			c1.027-0.184,2.107-0.221,3.072-0.576c5.738-2.113,11.342-4.68,17.203-6.357c6.182-1.771,12.789-2.15,18.869-4.164
			C168.293,279.292,174.91,275.097,175.465,265.708z"/>
		<path fill-rule="evenodd" clip-rule="evenodd" fill="#A3725D" d="M322.471,191.851c-8.221-7.533-11.49-16.996-9.811-27.838
			c0.898-5.791,4.154-10.359,10.346-12.248c8.883-2.713,17.562-6.182,26.557-8.406c8.816-2.178,16.035,2.441,22.818,7.484
			c0.543,1.176,1.012,2.393,1.641,3.521c6.732,12.094,3.906,21.35-8.51,27.465c-3.865,1.904-7.814,3.645-11.775,5.35
			C343.734,191.483,333.572,194.849,322.471,191.851z"/>
		<path fill-rule="evenodd" clip-rule="evenodd" fill="#ECC200" d="M242.365,291.991c-0.158,1.098,0.084,2.756-0.541,3.205
			c-5.811,4.172-6.01,9.451-3.436,15.131c-2.098,2.508-4.061,4.854-6.234,7.449c-8.701-5.939-10.918-15.328-12.955-25.039
			c-2.275-10.848-4.785-21.688-8.025-32.275c-1.514-4.945-4.596-9.574-7.668-13.842c-3.742-5.191-4.791-10.537-1.35-15.748
			c3.115-4.719,7.35-8.699,11.092-13.004c7.814,4.289,12.094,11.611,16.053,19.092c7.961,15.043,12.637,31.221,15.994,47.822
			c-0.639,0.68-1.279,1.361-1.918,2.043C243.039,288.546,242.703,290.269,242.365,291.991z"/>
		<path fill-rule="evenodd" clip-rule="evenodd" fill="#C5A300" d="M109.328,331.909c-2.111-14.516-4.039-29.061-6.379-43.539
			c-2.738-16.949-6.271-33.791-5.609-51.107c0.441-11.508-6.123-19.539-13.586-27.062c-2.631-2.654-5.523-5.051-8.297-7.562
			c10.986,3.033,20.068,8.359,25.42,19.137c3.016,6.074,6.896,11.756,10.742,17.371c4.467,6.525,5.236,13.934,5.664,21.4
			c0.77,13.439,0.248,27.039,2.182,40.293c1.336,9.154,6.088,17.777,8.914,26.764c1.092,3.473,2.316,7.65,1.369,10.893
			c-4.283,14.668-14.27,23.574-29.398,26.494c0.953-1.109,1.768-2.391,2.885-3.301c7.877-6.426,13.172-14.068,12.127-24.83
			c0.229-0.742,0.742-2.092,0.645-2.137C113.82,333.696,111.566,332.815,109.328,331.909z"/>
		<path fill-rule="evenodd" clip-rule="evenodd" fill="#ECC200" d="M348.287,226.14c1.777,12.008-5.223,20.576-11.883,28.998
			c-9.715,12.283-21.066,23.039-34.441,31.234c-6.422,3.934-13.842,6.211-20.711,9.449c-5.311,2.504-10.467,5.336-15.691,8.021
			c-0.223-2.811-0.672-5.625-0.629-8.432c0.203-13.27,2.826-17.506,15.365-21.705c18.924-6.34,31.322-19.99,42.018-35.801
			c1.023-1.514,1.969-3.078,2.994-4.588C331.703,223.919,337.602,222.083,348.287,226.14z"/>
		<path fill-rule="evenodd" clip-rule="evenodd" fill="#C5A300" d="M486.209,241.007c9.205-12.094,16.35-25.354,22.051-39.398
			c2.807-6.918,5.443-13.906,7.943-20.939c0.76-2.137,0.805-4.529,1.176-6.805c0.252,0.055,0.504,0.094,0.76,0.121
			c0.771,1.334,1.541,2.668,2.311,4.002c2.613,4.156,1.889,8.482,0.951,12.965c-11.086,53.061-39.98,92.695-88.455,117.619
			c-0.588,0.303-1.23,0.496-3.066-0.037c8.555-13.201,17.107-26.404,25.662-39.607c1.146-0.273,2.576-0.201,3.395-0.873
			c6.057-4.98,12.006-10.09,17.926-15.23c0.396-0.344,0.279-1.279,0.402-1.938C481.008,248.284,486.305,247.087,486.209,241.007z"/>
		<path fill-rule="evenodd" clip-rule="evenodd" fill="#ECC200" d="M296.256,262.63c-8.754,4.555-17.51,9.111-25.803,13.428
			c-7.27-8.73-14.645-16.35-20.443-25.021c-3.34-4.996-4.312-11.646-5.908-17.67c-0.297-1.123,1.191-3.609,2.404-4.096
			c6.398-2.555,12.83-5.82,19.521-6.645c7.938-0.979,16.152,0.275,24.248,0.561c1.025,5.16,2.27,10.287,3.025,15.484
			C294.463,246.632,295.287,254.64,296.256,262.63z"/>
		<path fill-rule="evenodd" clip-rule="evenodd" fill="#C5A300" d="M373.043,312.872c-4.775,8.469-9.549,16.939-15.078,26.75
			c-7.688-11.291-14.551-21.082-21.105-31.074c-7.408-11.293-7.383-11.473,2.57-20.836c6.908-6.5,14.271-12.52,21.15-19.049
			c4.008-3.807,7.461-8.197,11.791-13.023c1.438,1.467,3.768,3.844,6.098,6.221c-5.475,1.586-8.453,5.652-10.145,10.711
			c-4.209,12.588-1.961,24.85,2.326,36.922C371.096,310.745,372.229,311.751,373.043,312.872z"/>
		<path fill-rule="evenodd" clip-rule="evenodd" fill="#ECC200" d="M525.324,154.929c-9.523-12.064-20.846-14.865-34.211-10.199
			c5.648-26.336,11.287-52.628,16.926-78.922c0.637-0.103,1.273-0.206,1.91-0.309c1.406,2.454,3.32,4.751,4.139,7.387
			C522.285,99.292,526.795,126.23,525.324,154.929z"/>
		<path fill-rule="evenodd" clip-rule="evenodd" fill="#805847" d="M273.256,191.663c1.256-4.877,4.26-7.176,9.422-6.91
			c4.982,0.256,9.984,0.18,14.977,0.158c8.074-0.035,13.598,3.379,15.959,11.377c0.561,1.904,1.455,3.713,2.254,5.543
			c3.756,8.604,8.301,11.527,18.109,11.42c0.416,4.396,2.076,8.67-4.139,11.189c-3.732,1.512-6.748,4.789-10.65,7.691
			c-6.666-5.018-16.26-9.359-26.764-11.613c-2.723-0.584-5.482-1.002-8.225-1.496c1.121-0.133,2.24-0.264,3.746-0.441
			c-0.795-2.434-1.146-4.805-2.271-6.721C281.678,205.044,277.418,198.382,273.256,191.663z"/>
		<path fill-rule="evenodd" clip-rule="evenodd" fill="#ECC200" d="M175.465,265.708c-0.555,9.389-7.172,13.584-14.818,16.115
			c-6.08,2.014-12.688,2.393-18.869,4.164c-5.861,1.678-11.465,4.244-17.203,6.357c-0.965,0.355-2.045,0.393-3.072,0.576
			c-0.072-0.828-0.189-1.654-0.211-2.484c-0.141-5.516-2.367-11.062,1.354-16.436c5.936-8.574,12.193-16.773,22.123-20.975
			C157.576,247.603,170.715,253.151,175.465,265.708z"/>
		<path fill-rule="evenodd" clip-rule="evenodd" fill="#A3725D" d="M213.326,189.833c-5.439,0.469-10.918,0.666-16.303,1.492
			c-4.607,0.705-5.586,0.248-4.715-4.309c2.367-12.379,9.568-20.957,21.051-26.01c0.76-0.334,1.559-0.58,2.336-0.873
			c10.633-4.016,13.449-3.072,19.762,6.623c-0.041,2.311,0.129,4.65-0.16,6.932c-1.254,9.84-3.361,13.078-13.49,14.26
			C218.945,188.282,216.15,189.188,213.326,189.833z"/>
		<path fill-rule="evenodd" clip-rule="evenodd" fill="#FEF9C5" d="M240.275,167.985c7.4-12.49,15.631-16.896,26.521-12.959
			c6.117,2.211,11.635,6.076,17.422,9.195c-5.627,7.252-11.254,14.502-16.881,21.752c-9.195,2.312-16.416-0.211-21.668-7.975
			C243.557,174.874,242.055,171.337,240.275,167.985z"/>
		<path fill-rule="evenodd" clip-rule="evenodd" fill="#C5A300" d="M245.295,284.782c-3.357-16.602-8.033-32.779-15.994-47.822
			c-3.959-7.48-8.238-14.803-16.053-19.092c10.393-5.871,22.416-1.568,26.373,9.512c0.834,2.336,1.605,4.762,1.914,7.207
			c1.734,13.822,8.928,24.459,19.076,33.473c1.695,1.506,3.064,3.375,5.127,5.684c-8.252-1.117-14.096,0.453-16.666,8.416
			C248.697,283.319,246.598,283.921,245.295,284.782z"/>
		<path fill-rule="evenodd" clip-rule="evenodd" fill="#805847" d="M322.471,191.851c11.102,2.998,21.264-0.367,31.266-4.672
			c3.961-1.705,7.91-3.445,11.775-5.35c12.416-6.115,15.242-15.371,8.51-27.465c-0.629-1.129-1.098-2.346-1.641-3.521
			c17.326,8.977,30.188,39.396,21.699,51.326c-6.141-11.008-15.193-16.988-24.443-15.057c-5.283,1.102-10.266,3.717-15.318,5.805
			c-2.451,1.012-4.754,2.385-7.129,3.586C337.029,201.651,330.441,200.411,322.471,191.851z"/>
		<path fill-rule="evenodd" clip-rule="evenodd" fill="#C5A300" d="M212.42,273.778c1.277,6.635,2.275,13.338,3.906,19.885
			c1.818,7.307,4.213,14.469,6.67,22.756c-2.779-1.057-5.498-1.756-7.885-3.059c-6.959-3.799-13.838-7.752-20.607-11.873
			c-1.092-0.664-1.961-2.457-2.09-3.807c-0.752-7.904-1.252-15.832-1.838-23.754c4.934,0.994,9.836,2.439,14.814,2.777
			C207.656,276.858,210.072,274.821,212.42,273.778z"/>
		<path fill-rule="evenodd" clip-rule="evenodd" fill="#805847" d="M213.326,189.833c2.824-0.645,5.619-1.551,8.48-1.885
			c10.129-1.182,12.236-4.42,13.49-14.26c0.289-2.281,0.119-4.621,0.16-6.932c2.645,4.562,4.961,9.357,8.012,13.629
			c4.641,6.496,10.865,10.576,19.465,9.613c-3.623,12.117-14.441,17.02-26.266,11.922c-5.443-2.352-10.416-5.775-15.67-8.586
			C218.523,192.013,215.889,190.991,213.326,189.833z"/>
		<path fill-rule="evenodd" clip-rule="evenodd" fill="#A3715D" d="M273.256,191.663c4.162,6.719,8.422,13.381,12.418,20.197
			c1.125,1.916,1.477,4.287,2.271,6.721c-1.506,0.178-2.625,0.309-3.746,0.441c-9.508,0.971-19.049,1.691-28.5,3.049
			c-3.322,0.479-6.422,2.52-10.096,4.043c1.627-5.467,3.178-10.877,4.896-16.232c0.246-0.771,1.26-1.789,1.98-1.842
			c10.02-0.738,15.756-6.877,19.756-15.324C272.436,192.298,272.91,192.011,273.256,191.663z"/>
		<path fill-rule="evenodd" clip-rule="evenodd" fill="#A3715C" d="M518.139,173.985c-0.256-0.027-0.508-0.066-0.76-0.121
			c-1.682-1.686-3.363-3.369-5.047-5.055c-0.867-0.902-1.584-2.07-2.627-2.664c-7.789-4.434-15.943-5.129-24.389-2.047
			c-0.348-0.6-1.123-1.34-0.977-1.771c1.162-3.436,2.834-6.73,3.691-10.23c0.957-3.91,3.234-5.721,6.961-6.697
			c11.463-3,23.314,2.094,28.424,12.445C521.656,163.224,519.898,168.604,518.139,173.985z"/>
		<path fill-rule="evenodd" clip-rule="evenodd" fill="#C5A300" d="M285.176,164.265c6.756-9.736,16.814-14.994,27.342-19.125
			c13.113-5.146,26.668-9.164,39.812-14.238c4.668-1.801,8.693-5.268,13.012-7.974c0.336,7.052-3.463,11.827-9.336,14.508
			c-5.98,2.729-12.402,4.539-18.719,6.465c-17.225,5.252-33.727,11.875-47.418,24.066
			C288.305,166.733,286.74,165.499,285.176,164.265z"/>
		<path fill-rule="evenodd" clip-rule="evenodd" fill="#C5A300" d="M296.256,262.63c-0.969-7.99-1.793-15.998-2.955-23.959
			c-0.756-5.197-2-10.324-3.025-15.484c10.783,1.783,20.494,6.082,29.902,12.66C313.443,246.079,306.137,255.468,296.256,262.63z"/>
		<path fill-rule="evenodd" clip-rule="evenodd" fill="#ECC200" d="M373.043,312.872c-0.814-1.121-1.947-2.127-2.393-3.379
			c-4.287-12.072-6.535-24.334-2.326-36.922c1.691-5.059,4.67-9.125,10.145-10.711c3.939,3.49,5.238,7.594,3.875,12.867
			C379.072,287.397,376.123,300.151,373.043,312.872z"/>
		<path fill-rule="evenodd" clip-rule="evenodd" fill="#ECC200" d="M482.514,244.044c-5.287,0.428-10.592,0.705-15.854,1.346
			c-2.422,0.295-4.723,1.496-7.143,1.943c-8.211,1.514-13.369,6.596-16.824,13.854c-1.705,3.586-3.504,7.127-5.354,10.641
			c-0.617,1.172-1.521,2.195-3.014,4.303c-0.801-3.99-1.322-6.594-1.846-9.197c-1.842-3.611-0.311-6.281,1.723-9.471
			c10.533-16.541,26.412-19.254,44.066-17.682C482.572,240.163,482.885,240.638,482.514,244.044z"/>
		<path fill-rule="evenodd" clip-rule="evenodd" fill="#805746" d="M372.363,189.735c6.551-0.045,15.664,6,17.92,12.311
			c0.414,1.162-0.557,4.016-1.377,4.232c-6.678,1.764-13.451,3.223-20.262,4.369c-0.838,0.141-2.84-2.016-2.986-3.262
			c-0.422-3.602-0.172-7.283-0.184-10.934C365.455,190.612,366.314,189.774,372.363,189.735z"/>
		<path fill-rule="evenodd" clip-rule="evenodd" fill="#C5A300" d="M338.217,209.894c0-1.975,0-3.949,0-5.898
			c7.846-3.75,15.541-7.43,23.863-11.406c0,12.664,0,24.781,0,37.381c-0.76-0.633-1.291-1.076-1.822-1.521
			C357.193,216.663,351.35,211.056,338.217,209.894z"/>
		<path fill-rule="evenodd" clip-rule="evenodd" fill="#ECC200" d="M115.361,336.858c1.045,10.762-4.25,18.404-12.127,24.83
			c-1.117,0.91-1.932,2.191-2.885,3.301c-3.379,0.676-6.74,1.488-10.15,1.936c-0.855,0.111-2.152-0.762-2.688-1.559
			c-0.277-0.412,0.43-1.988,1.102-2.459c7.084-4.979,10.141-12.293,12.795-20.188C103.836,335.507,109.258,333.651,115.361,336.858z
			"/>
		<path fill-rule="evenodd" clip-rule="evenodd" fill="#EBC200" d="M185.189,257.925c-2.002,2.65-3.736,5.725-7.879,5.012
			c-3.727-7.664-9.262-13.248-18.867-15.328c2.982-3.803,5.193-7.295,8.061-10.123c4.609-4.547,9.928-4.08,12.645,1.699
			C181.92,245.075,183.236,251.649,185.189,257.925z"/>
		<path fill-rule="evenodd" clip-rule="evenodd" fill="#FDF8C5" d="M189.414,28.066c0.35,0.25,0.699,0.499,1.051,0.748
			c5.631,7.89,11.281,15.768,16.885,23.677c2.932,4.138,2.92,8.094-0.416,12.185c-2.068,2.537-3.562,5.541-5.316,8.336
			c-4.258-13.608-8.559-27.205-12.699-40.849C188.551,30.958,189.225,29.439,189.414,28.066z"/>
		<path fill-rule="evenodd" clip-rule="evenodd" fill="#DBD7AB" d="M370.467,30.971c1.16-0.524,2.32-1.049,3.48-1.573
			c0.498,0.229,0.998,0.457,1.496,0.686c-2.686,8.933-5.373,17.866-8.061,26.799c-1.205-0.207-2.545-0.863-3.592-0.547
			c-4.662,1.414-9.238,3.107-13.846,4.699c-2.885-2.45-2.662-5.35-0.467-7.841c5.445-6.179,11.135-12.145,16.764-18.161
			C367.576,33.608,369.055,32.322,370.467,30.971z"/>
		<path fill-rule="evenodd" clip-rule="evenodd" fill="#C4A300" d="M291.42,326.851c14.795-5.785,24.883-16.951,36.25-27.381
			c2.395,3.869,4.604,7.441,7.158,11.572c-10.521,0.879-16.838,8.027-24.023,13.717C303.193,330.784,298.617,331.401,291.42,326.851
			z"/>
		<path fill-rule="evenodd" clip-rule="evenodd" fill="#C4A300" d="M311.943,326.604c5.807-3.951,11.41-8.266,17.498-11.723
			c3.816-2.166,7.541-1.342,9.896,3.314c1.924,3.805,4.598,7.232,7.824,12.186c-12.246-0.584-23.393-1.115-34.541-1.646
			C312.395,328.024,312.168,327.315,311.943,326.604z"/>
		<path fill-rule="evenodd" clip-rule="evenodd" fill="#C5A300" d="M60.369,259.995c-0.441-8.145-6.553-12.822-11.666-17.668
			c-9.496-9.002-21.984-9.568-34.207-10.359c1.311-0.693,2.678-2.07,3.922-1.967c8.541,0.715,17.16,1.23,25.535,2.908
			c3.588,0.717,6.791,3.873,9.916,6.256c4.207,3.207,8.168,6.736,12.004,9.934C63.969,252.868,62.17,256.431,60.369,259.995z"/>
		<path fill-rule="evenodd" clip-rule="evenodd" fill="#C4A300" d="M219.553,202.003c0.631-1.516,1.262-3.035,1.666-4.008
			c7.705,3.26,15.189,6.426,23.066,9.754c-1.152,3.021-2.787,7.307-4.102,10.75c-5.48-2.221-10.738-4.354-15.996-6.486
			c0.34-0.775,1.191-1.883,0.938-2.273C223.398,207.075,221.438,204.565,219.553,202.003z"/>
		<path fill-rule="evenodd" clip-rule="evenodd" fill="#EBC100" d="M338.217,209.894c13.133,1.162,18.977,6.77,22.041,18.555
			c-7.189-2.709-14.379-5.418-22.758-8.576C337.66,217.644,337.938,213.769,338.217,209.894z"/>
		<path fill-rule="evenodd" clip-rule="evenodd" fill="#EBC200" d="M212.42,273.778c-2.348,1.043-4.764,3.08-7.029,2.926
			c-4.979-0.338-9.881-1.783-14.814-2.777c-0.66-3.836-1.32-7.672-2.088-12.141c1.756,0.352,3.389,0.383,4.754,1.004
			c5.543,2.525,11.045,5.15,16.459,7.938C210.832,271.31,211.525,272.739,212.42,273.778z"/>
		<path fill-rule="evenodd" clip-rule="evenodd" fill="#EAC102" d="M189.414,28.066c-0.189,1.373-0.863,2.893-0.496,4.097
			c4.141,13.644,8.441,27.24,12.699,40.849c-0.566,1.332-1.135,2.663-1.705,3.994c-0.459,0.095-0.92,0.189-1.379,0.284
			c-2.49-6.545-5.445-12.958-7.355-19.668c-2.586-9.071-4.492-18.346-6.391-27.595c-0.385-1.874,0.564-4.022,0.898-6.044
			C186.928,25.344,188.172,26.705,189.414,28.066z"/>
		<path fill-rule="evenodd" clip-rule="evenodd" fill="#FDF8C4" d="M349.945,61.035c4.607-1.592,9.184-3.285,13.846-4.699
			c1.047-0.316,2.387,0.34,3.592,0.547c-3.049,5.967-6.1,11.935-9.15,17.902C355.471,70.201,352.707,65.618,349.945,61.035z"/>
		<path fill-rule="evenodd" clip-rule="evenodd" fill="#C4A200" d="M232.285,38.085c-6.221,5.073-6.08,4.922-11.877-0.516
			c-5.143-4.823-10.646-9.26-15.99-13.867c8.299,3.553,16.635,7.017,24.852,10.749C230.559,35.038,231.293,36.844,232.285,38.085z"
			/>
		<path fill-rule="evenodd" clip-rule="evenodd" fill="#C2A100" d="M370.17,248.081c6.836,0,12.246,0,17.738,0
			c-1.262,4.725-2.539,9.506-4.117,15.408C380.553,257.222,373.211,255.44,370.17,248.081z"/>
		<path fill-rule="evenodd" clip-rule="evenodd" fill="#E7BE00" d="M242.434,313.954c-0.461-1.35-0.713-2.82-1.422-4.023
			c-2.234-3.803-2.443-7.518,0.398-11.002c2.586-3.172,5.924-3.852,9.758-2.326c1.344,0.535,2.799,0.797,4.51,1.266
			c-0.994,0.85-1.68,1.436-2.365,2.023c-5.939,2.445-6.83,7.975-8.1,13.271c-0.607,0.248-1.215,0.498-1.822,0.748
			C243.07,313.888,242.75,313.903,242.434,313.954z"/>
		<path fill-rule="evenodd" clip-rule="evenodd" fill="#DAD6AA" d="M285.176,164.265c1.564,1.234,3.129,2.469,4.693,3.703
			c-4.188,4.391-8.082,9.123-12.672,13.039c-2.719,2.32-6.537,3.355-9.859,4.967c5.627-7.25,11.254-14.5,16.881-21.752
			C284.541,164.169,284.861,164.183,285.176,164.265z"/>
		<path fill-rule="evenodd" clip-rule="evenodd" fill="#C4A200" d="M263.455,308.728c1.73,4.254,3.461,8.51,5.221,12.838
			c-7.662,4.865-11.885,3.379-15.16-5.678C257.539,314.487,262.428,314.286,263.455,308.728z"/>
		<path fill-rule="evenodd" clip-rule="evenodd" fill="#E8BF00" d="M477.264,250.886c-0.123,0.658-0.006,1.594-0.402,1.938
			c-5.92,5.141-11.869,10.25-17.926,15.23c-0.818,0.672-2.248,0.6-3.395,0.873C460.371,260.011,467.635,254.024,477.264,250.886z"/>
		<path fill-rule="evenodd" clip-rule="evenodd" fill="#C1A001" d="M263.545,329.021c0.727-3.465,5.336-5.934,8.855-4.773
			c3.652,1.203,7.316,2.365,11.193,3.615c-4.152,3.369-8.607,5.492-14.182,3.096C267.455,330.312,265.5,329.667,263.545,329.021z"/>
		<path fill-rule="evenodd" clip-rule="evenodd" fill="#E4BC01" d="M265.061,280.101c-0.93,3.098-1.682,5.293-2.24,7.535
			c-0.707,2.836-1.371,5.834-5.186,5.209c-1.152-0.189-3.078-2.105-2.904-2.785c0.711-2.789,1.572-5.873,3.41-7.93
			C259.404,280.714,262.361,280.812,265.061,280.101z"/>
		<path fill-rule="evenodd" clip-rule="evenodd" fill="#C2A101" d="M250.49,311.019c1.127,4.445,2.256,8.891,3.42,13.477
			c-4.688-0.791-9.594-1.619-14.5-2.445c-0.568-1.59-2.508-3.5,0.965-4.146c6.984,1.873,9.85,0.133,9.941-6.039
			C250.357,311.579,250.414,311.298,250.49,311.019z"/>
		<path fill-rule="evenodd" clip-rule="evenodd" fill="#7E5646" d="M518.139,173.985c1.76-5.381,3.518-10.762,5.277-16.141
			c0.619,1.801,1.787,3.615,1.748,5.404c-0.088,4.107-0.805,8.199-1.188,12.305c-0.215,2.311-1.32,3.117-3.527,2.436
			C519.68,176.653,518.91,175.319,518.139,173.985z"/>
		<path fill-rule="evenodd" clip-rule="evenodd" fill="#D8B201" d="M242.365,291.991c0.338-1.723,0.674-3.445,1.012-5.166
			c2.812-0.633,5.625-1.266,8.814-1.982c0.076,1.627,0.1,3.066,0.225,4.496c0.125,1.438,0.352,2.865,0.639,5.115
			C249.227,293.573,245.795,292.782,242.365,291.991z"/>
		<path fill-rule="evenodd" clip-rule="evenodd" fill="#EAC000" d="M263.455,308.728c-1.027,5.559-5.916,5.76-9.939,7.16
			c-0.723-6.375-0.123-7.148,9.166-11.305C262.957,306.058,263.207,307.392,263.455,308.728z"/>
		<path fill-rule="evenodd" clip-rule="evenodd" fill="#BC9C02" d="M263.545,329.021c1.955,0.646,3.91,1.291,5.867,1.938
			c0.57,0.822,1.141,1.645,2.279,3.281c-5.582,0.303-10.957,0.592-17.85,0.965C257.359,331.581,258.795,327.79,263.545,329.021z"/>
		<path fill-rule="evenodd" clip-rule="evenodd" fill="#E7BE01" d="M219.553,202.003c1.885,2.562,3.846,5.072,5.572,7.736
			c0.254,0.391-0.598,1.498-0.938,2.273c-2.771,0.244-5.543,0.488-9.119,0.803C216.713,208.851,218.133,205.427,219.553,202.003z"/>
		<path fill-rule="evenodd" clip-rule="evenodd" fill="#1E1F1B" d="M485.316,164.097c8.445-3.08,16.6-2.385,24.389,2.049
			c1.043,0.594,1.76,1.762,2.627,2.664c-0.645,0.01-1.443,0.277-1.916-0.004c-7.83-4.631-16.332-4.264-24.902-3.463
			C485.447,164.929,485.383,164.513,485.316,164.097z"/>
		<path fill-rule="evenodd" clip-rule="evenodd" fill="#E5BD01" d="M255.357,331.437c-4.598-0.855-8.539-1.422-12.342-2.488
			c-0.52-0.145-0.342-2.779-0.5-4.402C253.484,326.284,253.484,326.284,255.357,331.437z"/>
		<path fill-rule="evenodd" clip-rule="evenodd" fill="#CCA904" d="M240.377,317.901c-3.475,0.648-1.535,2.559-0.967,4.148
			c0.684,1.592,1.367,3.182,2.404,5.596c-5.137-1.254-7.676-5.334-6.322-9.074c1.074-2.971,2.434-6.406,6.941-4.617
			c0.316-0.051,0.637-0.066,0.957-0.043C242.385,315.241,241.381,316.571,240.377,317.901z"/>
		<path fill-rule="evenodd" clip-rule="evenodd" fill="#1B1E18" d="M250.49,311.019c-0.076,0.279-0.133,0.561-0.174,0.846
			c-1.701,0.432-3.402,0.865-5.104,1.299c1.27-5.297,2.16-10.826,8.1-13.271c0.393,0.371,0.787,0.742,1.18,1.113
			c-1.119,1.994-2.238,3.986-3.359,5.98C250.92,308.329,250.705,309.675,250.49,311.019z"/>
		<path fill-rule="evenodd" clip-rule="evenodd" fill="#BA9B02" d="M265.51,277.464c-4.943,1.588-9.262,2.975-14.045,4.512
			C255.74,275.733,259.459,274.53,265.51,277.464z"/>
		<path fill-rule="evenodd" clip-rule="evenodd" fill="#BF9E01" d="M251.133,306.985c1.121-1.994,2.24-3.986,3.359-5.98
			c1.906-0.113,3.811-0.227,5.715-0.34c0.168,0.775,0.334,1.551,0.502,2.326C257.518,304.321,254.326,305.653,251.133,306.985z"/>
		<path fill-rule="evenodd" clip-rule="evenodd" fill="#E7E7E8" d="M247.844,210.413c-1.641,4.861-3.283,9.723-5.096,15.086
			C241.059,221.931,242.764,216.103,247.844,210.413z"/>
		<path fill-rule="evenodd" clip-rule="evenodd" fill="#141819" d="M314.557,112.844c-12.312,9.225-23.57,19.394-30.598,34.698
			C282.955,135.162,302.564,115.088,314.557,112.844z"/>
		<path fill-rule="evenodd" clip-rule="evenodd" fill="#141819" d="M236.984,145.05c-8.168-9.117-16.602-18.531-24.672-27.536
			C220.764,118.829,238.041,137.923,236.984,145.05z"/>
		<path fill-rule="evenodd" clip-rule="evenodd" fill="#DFB801" d="M245.213,313.163c1.701-0.434,3.402-0.867,5.104-1.299
			c-0.092,6.172-2.957,7.912-9.941,6.039c1.006-1.332,2.01-2.662,3.016-3.992C243.998,313.661,244.605,313.411,245.213,313.163z"/>
	</g>
</g>
</svg>
