<?xml version="1.0" encoding="utf-8"?>
<!-- Generator: Adobe Illustrator 16.0.0, SVG Export Plug-In . SVG Version: 6.00 Build 0)  -->
<!DOCTYPE svg PUBLIC "-//W3C//DTD SVG 1.1//EN" "http://www.w3.org/Graphics/SVG/1.1/DTD/svg11.dtd">
<svg version="1.1" id="Layer_1" xmlns="http://www.w3.org/2000/svg" xmlns:xlink="http://www.w3.org/1999/xlink" x="0px" y="0px"
	 width="563px" height="412px" viewBox="0 0 563 412" enable-background="new 0 0 563 412" xml:space="preserve">
<g>
	<g>
		<path fill="none" d="M-359,619c0-277.333,0-554.667,0-832c313.333,0,626.667,0,940,0c0,277.333,0,554.667,0,832
			C267.667,619-45.667,619-359,619z M478.089,261.054c8.218,0,13.917,0.431,19.526-0.095c10.008-0.939,19.811-2.882,27.477-10.259
			c15.766-15.172,16.706-42.96,2.301-60.042c-9.628-11.417-21.596-19.688-34.598-26.601c-15.842-8.422-31.895-16.45-47.697-24.943
			c-12.637-6.791-22.541-16.793-29.179-29.348c-7.904-14.948-14.269-30.707-22.104-45.695c-4.188-8.011-8.956-16.309-15.408-22.424
			C364.432,28.4,347.124,26.377,329.017,31.56c-12.606,3.608-24.956,8.105-37.54,11.798c-13.788,4.046-27.547,4.594-40.731-2.428
			c-5.571-2.967-11.007-6.188-16.554-9.203c-23.499-12.767-49.126-6.543-63.967,15.554c-2.222,3.309-4.359,6.694-6.269,10.19
			c-20.106,36.811-45.446,69.574-75.597,98.717c-12.817,12.388-25.333,25.104-37.638,38.001
			c-10.103,10.589-20.222,21.31-26.044,35.086c-10.124,23.957,0.114,47.276,23.877,54.238c4.594,1.346,9.504,1.572,14.218,2.557
			c7.258,1.517,14.719,2.567,21.628,5.091c5.549,2.026,6.701,6.562,4.155,11.936c-1.472,3.106-3.792,5.821-5.814,8.652
			c-6.934,9.71-14.807,18.889-20.603,29.232c-5.582,9.961-3.14,20.18,4.416,26.858c7.1,6.277,15.511,6.37,23.983,3.624
			c15.636-5.067,31.079-10.74,46.77-15.62c20.426-6.354,40.172-5.817,57.645,8.343c5.416,4.39,10.254,9.51,15.217,14.438
			c17.986,17.856,39.233,23.894,64.049,18.58c13.215-2.829,24.385-9.594,35.261-16.914c13.769-9.269,28.597-10.915,44.399-7.744
			c13.669,2.744,24.444,10.823,35.238,18.946c19.243,14.483,28.788,14.337,47.533-0.518c8.802-6.976,18.348-11.358,29.972-9.153
			c5.386,1.021,10.792,1.99,16.229,2.668c7.836,0.977,15.332-0.028,21.611-5.346c13.583-11.505,14.772-33.045,2.4-45.778
			c-3.341-3.438-7.032-6.706-11.056-9.281c-12.458-7.972-25.256-15.413-37.694-23.413c-3.847-2.475-7.54-5.639-10.312-9.249
			c-8.56-11.15-3.262-25.787,10.477-28.541C465.566,261.419,473.161,261.471,478.089,261.054z"/>
		<path fill-rule="evenodd" clip-rule="evenodd" fill="#151A21" d="M478.089,261.054c-4.928,0.417-12.522,0.365-19.813,1.826
			c-13.738,2.754-19.036,17.391-10.477,28.541c2.771,3.61,6.465,6.774,10.312,9.249c12.438,8,25.236,15.441,37.694,23.413
			c4.023,2.575,7.715,5.843,11.056,9.281c12.372,12.733,11.183,34.273-2.4,45.778c-6.279,5.317-13.775,6.322-21.611,5.346
			c-5.437-0.678-10.843-1.646-16.229-2.668c-11.624-2.205-21.17,2.178-29.972,9.153c-18.745,14.854-28.29,15.001-47.533,0.518
			c-10.794-8.123-21.569-16.202-35.238-18.946c-15.803-3.171-30.631-1.524-44.399,7.744c-10.876,7.32-22.046,14.085-35.261,16.914
			c-24.815,5.313-46.062-0.724-64.049-18.58c-4.963-4.928-9.801-10.048-15.217-14.438c-17.473-14.16-37.219-14.696-57.645-8.343
			c-15.691,4.88-31.134,10.553-46.77,15.62c-8.473,2.746-16.883,2.653-23.983-3.624c-7.555-6.679-9.998-16.897-4.416-26.858
			c5.796-10.344,13.669-19.522,20.603-29.232c2.022-2.831,4.342-5.546,5.814-8.652c2.546-5.373,1.394-9.909-4.155-11.936
			c-6.909-2.523-14.37-3.574-21.628-5.091c-4.713-0.984-9.624-1.211-14.218-2.557c-23.764-6.962-34.001-30.281-23.877-54.238
			c5.822-13.776,15.941-24.497,26.044-35.086c12.305-12.897,24.821-25.613,37.638-38.001c30.151-29.143,55.49-61.906,75.597-98.717
			c1.909-3.496,4.047-6.882,6.269-10.19c14.841-22.097,40.468-28.32,63.967-15.554c5.547,3.015,10.982,6.236,16.554,9.203
			c13.185,7.021,26.943,6.474,40.731,2.428c12.584-3.692,24.934-8.189,37.54-11.798c18.107-5.183,35.415-3.159,49.391,10.088
			c6.452,6.115,11.221,14.413,15.408,22.424c7.835,14.988,14.199,30.747,22.104,45.695c6.638,12.555,16.542,22.557,29.179,29.348
			c15.803,8.493,31.855,16.521,47.697,24.943c13.002,6.912,24.97,15.184,34.598,26.601c14.405,17.082,13.465,44.87-2.301,60.042
			c-7.666,7.377-17.469,9.319-27.477,10.259C492.006,261.484,486.307,261.054,478.089,261.054z M95.958,298.99
			c-2.665,4.548-5.061,9.282-8.051,13.606c-6.511,9.415-13.586,18.448-19.911,27.982c-3.47,5.231-4.457,11.344-2.311,17.591
			c2.007,5.278,5.983,8.272,11.469,7.763c7.527-0.699,15.154-1.609,22.421-3.593c21.209-5.788,41.869-13.664,64.215-14.716
			c13.258-0.624,24.896,2.544,34.896,11.448c6.711,5.976,13.463,11.917,20.415,17.605c13.205,10.804,28.025,16.769,45.501,15.2
			c15.107-1.356,28.789-6.356,41.034-15.135c18.643-13.365,38.813-14.147,59.092-5.776c11.684,4.822,22.379,12.179,33.202,18.905
			c9.635,5.988,19.123,7.072,29.008,1.19c3.56-2.118,7.012-4.453,10.324-6.94c7.889-5.924,16.343-9.427,26.466-7.337
			c4.055,0.837,8.196,1.249,12.293,1.886c10.479,1.627,20.597,1.964,27.988-7.667c9.437-12.039,8.686-26.128-2.649-36.042
			c-5.715-4.997-12.313-9.028-18.71-13.192c-9.605-6.253-19.507-12.054-29.048-18.4c-6.65-4.423-11.679-10.357-13.809-18.329
			c0.052-2.986-0.087-5.991,0.189-8.958c1.046-11.205,8.868-19.207,19.84-20.138c6.289-0.533,12.62-0.57,18.922-0.986
			c9.094-0.6,18.285-0.694,27.239-2.181c11.892-1.975,20.824-8.226,23.82-20.815c4.016-14.325,1.616-27.604-7.845-38.964
			c-5.055-6.069-10.866-12.04-17.519-16.132c-12.996-7.994-26.792-14.694-40.316-21.818c-8.384-4.417-16.923-8.538-25.31-12.95
			c-15.404-8.104-25.388-21.207-32.919-36.419c-8.624-17.419-16.282-35.37-25.824-52.263c-8.992-15.92-25.085-22.436-42.705-18.422
			c-11.125,2.534-21.982,6.436-32.755,10.295c-23.638,8.471-46.236,8.358-67.643-6.462c-3.633-2.516-7.852-4.479-12.081-5.791
			c-17.89-5.551-36.577,0.566-47.833,16.03c-6.943,9.54-13.37,19.502-19.429,29.634c-15.559,26.02-34.347,49.464-55.261,71.324
			c-17.854,18.659-35.631,37.397-53.129,56.389c-8.126,8.819-15.458,18.371-19.542,29.909c-2.799,7.908-3.787,15.841,0.433,23.648
			c3.336,9.86,10.613,15.603,20.314,17.878c9.508,2.23,19.244,3.507,28.898,5.088C88.189,284.386,94.78,290.666,95.958,298.99z"/>
		<path fill-rule="evenodd" clip-rule="evenodd" fill="#DF96BE" d="M439.793,285.04c2.13,7.972,7.158,13.906,13.809,18.329
			c9.541,6.347,19.442,12.147,29.048,18.4c6.396,4.164,12.995,8.195,18.71,13.192c11.335,9.914,12.086,24.003,2.649,36.042
			c-7.646,2.733-15.261,2.479-22.898-0.11c-3.298-1.118-6.657-2.068-10.02-2.978c-14.823-4.009-28.042-2.357-39.234,9.579
			c-10.511,11.211-22.602,11.618-34.654,2.225c-7.312-5.7-14.307-11.924-22.116-16.846c-15.099-9.514-31.724-13.273-49.068-7.774
			c-7.405,2.349-14.38,6.792-20.809,11.334c-15.481,10.937-32.171,16.847-51.333,15.661c-11.409-0.705-21.384-4.724-29.976-11.851
			c-8.17-6.775-15.814-14.193-23.575-21.452c-14.943-13.978-32.565-17.552-51.565-11.593c-11.973,3.754-23.325,9.591-34.771,14.892
			c-15.513,7.184-31.11,12.702-48.304,6.079c-2.146-6.247-1.159-12.359,2.311-17.591c6.324-9.534,13.399-18.567,19.911-27.982
			c2.99-4.324,5.386-9.059,8.051-13.606c5.938-4.079,5.397-13.332-0.938-17.986c-8.597-6.316-18.873-7.636-28.824-10.028
			c-9.758-2.346-19.481-4.85-29.152-7.53c-2.439-0.677-4.619-2.291-6.917-3.475c-4.22-7.808-3.232-15.74-0.433-23.648
			c4.084-11.538,11.416-21.09,19.542-29.909c17.498-18.991,35.275-37.729,53.129-56.389c20.915-21.86,39.703-45.305,55.261-71.324
			c6.059-10.132,12.485-20.094,19.429-29.634c11.256-15.464,29.943-21.581,47.833-16.03c4.229,1.312,8.448,3.275,12.081,5.791
			c21.406,14.82,44.005,14.933,67.643,6.462c10.772-3.859,21.63-7.761,32.755-10.295c17.62-4.014,33.713,2.502,42.705,18.422
			c9.542,16.893,17.2,34.844,25.824,52.263c7.531,15.212,17.515,28.314,32.919,36.419c8.387,4.412,16.926,8.533,25.31,12.95
			c13.524,7.124,27.32,13.824,40.316,21.818c6.652,4.092,12.464,10.062,17.519,16.132c9.461,11.359,11.86,24.639,7.845,38.964
			c-7.674,8.526-17.505,12.999-28.669,14.105c-13.654,1.354-27.375,2.04-41.073,2.933c-8.141,0.53-15.687,2.119-21.405,8.775
			C432.023,265.492,432.439,279.144,439.793,285.04z M192.918,144.501c2.604,6.868,7.896,9.96,14.54,10.483
			c30.528,2.409,61.048,5.057,91.617,6.774c14.923,0.838,29.952-0.036,44.927-0.412c5.796-0.146,9.692-3.571,10.23-6.848
			c-5.749,1.139-11.885,3.278-18.069,3.428c-40.011,0.969-79.797-2.991-119.608-6.188c-4.939-0.397-9.948-1.006-14.696-2.332
			C198.67,148.517,195.884,146.187,192.918,144.501z M238.898,112.931c-2.181-1.619-3.352-3.169-4.427-3.104
			c-1.189,0.07-3.188,1.598-3.208,2.525c-0.026,1.193,1.482,3.317,2.482,3.41C235.024,115.881,236.453,114.375,238.898,112.931z
			 M322.607,112.358c-1.521,1.771-3.222,2.879-3.251,4.029c-0.03,1.152,1.607,2.348,2.515,3.525c1.286-1.048,3.129-1.88,3.646-3.224
			C325.817,115.91,323.988,114.31,322.607,112.358z"/>
		<path fill-rule="evenodd" clip-rule="evenodd" fill="#C081A4" d="M65.685,358.17c17.194,6.623,32.791,1.104,48.304-6.079
			c11.446-5.301,22.799-11.138,34.771-14.892c19-5.959,36.622-2.385,51.565,11.593c7.761,7.259,15.405,14.677,23.575,21.452
			c8.592,7.127,18.566,11.146,29.976,11.851c19.162,1.186,35.852-4.725,51.333-15.661c6.429-4.542,13.403-8.985,20.809-11.334
			c17.345-5.499,33.97-1.739,49.068,7.774c7.81,4.922,14.804,11.146,22.116,16.846c12.053,9.394,24.144,8.986,34.654-2.225
			c11.192-11.937,24.411-13.588,39.234-9.579c3.362,0.909,6.722,1.859,10.02,2.978c7.638,2.589,15.252,2.844,22.898,0.11
			c-7.392,9.631-17.51,9.294-27.988,7.667c-4.097-0.637-8.238-1.049-12.293-1.886c-10.123-2.09-18.577,1.413-26.466,7.337
			c-3.312,2.487-6.765,4.822-10.324,6.94c-9.885,5.882-19.373,4.798-29.008-1.19c-10.823-6.727-21.519-14.083-33.202-18.905
			c-20.278-8.371-40.449-7.589-59.092,5.776c-12.245,8.778-25.927,13.778-41.034,15.135c-17.476,1.568-32.296-4.396-45.501-15.2
			c-6.952-5.688-13.704-11.63-20.415-17.605c-10-8.904-21.638-12.072-34.896-11.448c-22.346,1.052-43.005,8.928-64.215,14.716
			c-7.267,1.983-14.894,2.894-22.421,3.593C71.668,366.442,67.692,363.448,65.685,358.17z"/>
		<path fill-rule="evenodd" clip-rule="evenodd" fill="#BF81A4" d="M439.793,285.04c-7.354-5.896-7.77-19.548-1.137-27.265
			c5.719-6.656,13.265-8.245,21.405-8.775c13.698-0.893,27.419-1.579,41.073-2.933c11.164-1.106,20.995-5.579,28.669-14.105
			c-2.996,12.59-11.929,18.841-23.82,20.815c-8.954,1.486-18.146,1.581-27.239,2.181c-6.302,0.416-12.633,0.453-18.922,0.986
			c-10.972,0.931-18.794,8.933-19.84,20.138C439.706,279.049,439.845,282.054,439.793,285.04z"/>
		<path fill-rule="evenodd" clip-rule="evenodd" fill="#C081A4" d="M30.126,259.971c2.299,1.184,4.478,2.798,6.917,3.475
			c9.67,2.681,19.394,5.185,29.152,7.53c9.951,2.393,20.227,3.712,28.824,10.028c6.335,4.654,6.876,13.907,0.938,17.986
			c-1.178-8.324-7.769-14.604-16.619-16.054c-9.654-1.581-19.391-2.857-28.898-5.088C40.74,275.573,33.462,269.831,30.126,259.971z"
			/>
		<path fill-rule="evenodd" clip-rule="evenodd" fill="#1D1D26" d="M192.918,144.501c2.966,1.686,5.752,4.016,8.94,4.905
			c4.748,1.326,9.757,1.935,14.696,2.332c39.812,3.197,79.598,7.157,119.608,6.188c6.185-0.149,12.32-2.289,18.069-3.428
			c-0.538,3.276-4.435,6.702-10.23,6.848c-14.975,0.376-30.004,1.25-44.927,0.412c-30.569-1.718-61.089-4.365-91.617-6.774
			C200.814,154.461,195.522,151.369,192.918,144.501z"/>
		<path fill-rule="evenodd" clip-rule="evenodd" fill="#1A1B24" d="M238.898,112.931c-2.445,1.444-3.874,2.95-5.152,2.831
			c-1-0.093-2.509-2.217-2.482-3.41c0.021-0.928,2.019-2.455,3.208-2.525C235.547,109.762,236.718,111.312,238.898,112.931z"/>
		<path fill-rule="evenodd" clip-rule="evenodd" fill="#23212B" d="M322.607,112.358c1.381,1.951,3.21,3.552,2.909,4.331
			c-0.517,1.344-2.359,2.176-3.646,3.224c-0.907-1.178-2.545-2.373-2.515-3.525C319.386,115.237,321.086,114.13,322.607,112.358z"/>
	</g>
</g>
</svg>
